M48
INCH
T01C0.022
T02C0.0295
T03C0.0343
T04C0.0354
T05C0.0787
T06C0.138
%
T01
X+007750Y+005000
X+010750Y+005000
X+015250Y+005250
X+015250Y+008250
X+019750Y+016750
X+019750Y+019750
X+026500Y+019750
X+026500Y+016750
X+029000Y+005250
X+032000Y+005250
T02
X+023972Y+013750
X+027028Y+013750
X+024281Y+007504
X+021226Y+007504
T03
X+005750Y+011358
X+005250Y+011358
X+004750Y+011358
X+008000Y+011142
X+008500Y+011142
X+009000Y+011142
X+032108Y+016250
X+032108Y+016750
X+032108Y+017250
T04
X+015250Y+010500
X+015250Y+012500
X+019614Y+013500
X+019614Y+014000
X+019614Y+014500
X+009864Y+017500
X+009864Y+018000
X+009864Y+018500
X+004364Y+018250
X+004364Y+017750
X+004364Y+018750
X+030750Y+008614
X+031250Y+008614
X+031750Y+008614
T05
X+011250Y+008250
X+004500Y+005500
X+021000Y+002500
X+032000Y+012500
X+019750Y+022250
T06
X+003000Y+021750
X+003000Y+001000
X+033000Y+001000
X+033000Y+021750
T00
M30
