G04 DipTrace 4.1.3.1*
G04 AtasTugrulBottom.gbr*
%MOIN*%
G04 #@! TF.FileFunction,Copper,L2,Bot*
G04 #@! TF.Part,Single*
G04 #@! TA.AperFunction,Conductor*
%ADD14C,0.04*%
G04 #@! TA.AperFunction,ComponentPad*
%ADD15C,0.062992*%
%ADD16R,0.062992X0.062992*%
%ADD17R,0.045276X0.045276*%
%ADD18C,0.045276*%
%ADD19C,0.15748*%
%ADD20R,0.070157X0.041811*%
%ADD21O,0.070157X0.041811*%
%ADD22R,0.041339X0.065748*%
%ADD23O,0.041339X0.065748*%
%ADD24R,0.065748X0.041339*%
%ADD25O,0.065748X0.041339*%
%ADD26R,0.041811X0.070157*%
%ADD27O,0.041811X0.070157*%
%ADD28C,0.05*%
%ADD29C,0.05*%
%FSLAX26Y26*%
G04*
G70*
G90*
G75*
G01*
G04 Bottom*
%LPD*%
X986358Y1850000D2*
G54D14*
Y1975000D1*
X436358D1*
Y1875000D1*
X1975000Y1975000D2*
X986358D1*
X1975000Y2225000D2*
Y1975000D1*
X2650000D2*
X1975000D1*
X3210780Y1725000D2*
Y1975000D1*
X2650000D1*
X1961358Y1400000D2*
X1840000D1*
X1660000Y1220000D1*
X1555000D1*
X1525000Y1250000D1*
X986358Y1750000D2*
X999819D1*
X1234909Y1514909D1*
X1499819Y1250000D1*
X1525000D1*
X900000Y1114220D2*
X920000D1*
Y1170000D1*
X936550Y1186550D1*
X961550D1*
X1234909Y1459909D1*
Y1514909D1*
X436358Y1775000D2*
Y1825000D1*
X986358Y1800000D2*
X436358D1*
Y1825000D1*
X475000Y1135780D2*
X444331D1*
Y1604331D1*
X436358Y1612303D1*
Y1775000D1*
X800000Y1114228D2*
X746234D1*
X681318Y1179144D1*
X618373D1*
X575000Y1135772D1*
X775000Y500000D2*
X743804Y531196D1*
Y1114228D1*
X800000D1*
X450000Y550000D2*
Y890000D1*
X525000Y965000D1*
Y1135770D1*
X850000Y1114230D2*
Y1023688D1*
X1048688Y825000D1*
X1125000D1*
X1525000D2*
Y1050000D1*
X2122638Y750394D2*
X1649606D1*
X1575000Y825000D1*
X1525000D1*
X1961358Y1350000D2*
Y1286864D1*
X1724495Y1050000D1*
X1525000D1*
X2397244Y1375000D2*
X2215000D1*
X2140000Y1300000D1*
X1978457D1*
X1970304Y1291848D1*
X1963066D1*
Y1322563D1*
X1961358D1*
Y1350000D1*
X2900000Y525000D2*
X2675000D1*
X2449606Y750394D1*
X2428150D1*
X3125000Y861358D2*
Y776102D1*
X2915349Y566451D1*
Y544073D1*
X2900451Y529176D1*
Y524549D1*
X2900000Y525000D1*
X1975000Y1675000D2*
Y1525182D1*
X1961358Y1511541D1*
Y1450000D1*
X2650000Y1675000D2*
Y1427756D1*
X2702756Y1375000D1*
X3210770Y1675000D2*
X2650000D1*
X3200000Y525000D2*
X3242245Y567245D1*
Y849379D1*
X3175000D1*
Y861358D1*
X2100000Y250000D2*
X2925000D1*
X3200000Y525000D1*
X1525000D2*
X1875000D1*
X2100000Y300000D1*
Y250000D1*
X1075000Y500000D2*
Y525000D1*
X1525000D1*
X3200000Y1250000D2*
X3200291D1*
Y1550996D1*
X3209699Y1560404D1*
Y1566720D1*
X3239375Y1596396D1*
X3210772Y1625000D1*
X3075000Y861358D2*
X3044094D1*
Y924094D1*
X3200000Y1080000D1*
Y1250000D1*
G54D15*
X1525000Y1050000D3*
G54D16*
Y1250000D3*
G54D17*
X2397244Y1375000D3*
G54D18*
X2702756D3*
G54D17*
X2428150Y750394D3*
G54D18*
X2122638D3*
G54D19*
X1125000Y825000D3*
G54D20*
X436358Y1875000D3*
G54D21*
Y1825000D3*
Y1775000D3*
G54D20*
X986358Y1850000D3*
G54D21*
Y1800000D3*
Y1750000D3*
G54D22*
X575000Y1135772D3*
G54D23*
X525000Y1135770D3*
X475000Y1135780D3*
G54D22*
X800000Y1114228D3*
G54D23*
X850000Y1114230D3*
X900000Y1114220D3*
G54D20*
X1961358Y1450000D3*
G54D21*
Y1400000D3*
Y1350000D3*
G54D24*
X3210772Y1625000D3*
G54D25*
X3210770Y1675000D3*
X3210780Y1725000D3*
G54D26*
X3075000Y861358D3*
G54D27*
X3125000D3*
X3175000D3*
G54D28*
X775000Y500000D3*
G54D29*
X1075000D3*
G54D28*
X1975000Y1975000D3*
G54D29*
Y1675000D3*
G54D28*
X1525000Y825000D3*
G54D29*
Y525000D3*
G54D28*
X2650000Y1975000D3*
G54D29*
Y1675000D3*
G54D28*
X2900000Y525000D3*
G54D29*
X3200000D3*
G54D19*
X2100000Y250000D3*
X450000Y550000D3*
X3200000Y1250000D3*
X1975000Y2225000D3*
M02*
