G04 DipTrace 4.1.3.1*
G04 AtasTugrulTopSilk.gbr*
%MOIN*%
G04 #@! TF.FileFunction,Legend,Top*
G04 #@! TF.Part,Single*
%ADD10C,0.004724*%
%ADD68C,0.00772*%
%ADD69C,0.008749*%
%FSLAX26Y26*%
G04*
G70*
G90*
G75*
G01*
G04 TopSilk*
%LPD*%
X1585000Y1269881D2*
G54D10*
Y1030119D1*
X1465000Y1269881D2*
Y1030119D1*
G03X1585000Y1030119I60000J-119D01*
G01*
Y1269881D2*
G03X1465000Y1269881I-60000J119D01*
G01*
X2494094Y1411417D2*
X2466142D1*
Y1338583D1*
X2494094D1*
X2605906Y1411417D2*
X2633858D1*
Y1338583D1*
X2605906D1*
X2426772Y1375000D2*
X2466142D1*
X2633858D2*
X2673228D1*
G36*
X2387402Y1412402D2*
X2387486Y1413686D1*
X2387737Y1414949D1*
X2388151Y1416168D1*
X2388720Y1417323D1*
X2389435Y1418393D1*
X2390284Y1419361D1*
X2391252Y1420210D1*
X2392323Y1420925D1*
X2393478Y1421495D1*
X2394697Y1421909D1*
X2395959Y1422160D1*
X2397244Y1422244D1*
X2398529Y1422160D1*
X2399792Y1421909D1*
X2401011Y1421495D1*
X2402165Y1420925D1*
X2403236Y1420210D1*
X2404204Y1419361D1*
X2405053Y1418393D1*
X2405768Y1417323D1*
X2406337Y1416168D1*
X2406751Y1414949D1*
X2407002Y1413686D1*
X2407087Y1412402D1*
D1*
X2407002Y1411117D1*
X2406751Y1409854D1*
X2406337Y1408635D1*
X2405768Y1407480D1*
X2405053Y1406410D1*
X2404204Y1405442D1*
X2403236Y1404593D1*
X2402165Y1403878D1*
X2401011Y1403308D1*
X2399792Y1402894D1*
X2398529Y1402643D1*
X2397244Y1402559D1*
X2395959Y1402643D1*
X2394697Y1402894D1*
X2393478Y1403308D1*
X2392323Y1403878D1*
X2391252Y1404593D1*
X2390284Y1405442D1*
X2389435Y1406410D1*
X2388720Y1407480D1*
X2388151Y1408635D1*
X2387737Y1409854D1*
X2387486Y1411117D1*
X2387402Y1412402D1*
D1*
G37*
X2331299Y713976D2*
G54D10*
X2359252D1*
Y786811D1*
X2331299D1*
X2219488Y713976D2*
X2191535D1*
Y786811D1*
X2219488D1*
X2398622Y750394D2*
X2359252D1*
X2191535D2*
X2152165D1*
G36*
X2437992Y712992D2*
X2437908Y711707D1*
X2437657Y710445D1*
X2437243Y709226D1*
X2436673Y708071D1*
X2435958Y707000D1*
X2435109Y706032D1*
X2434141Y705184D1*
X2433071Y704468D1*
X2431916Y703899D1*
X2430697Y703485D1*
X2429434Y703234D1*
X2428150Y703150D1*
X2426865Y703234D1*
X2425602Y703485D1*
X2424383Y703899D1*
X2423228Y704468D1*
X2422158Y705184D1*
X2421190Y706032D1*
X2420341Y707000D1*
X2419626Y708071D1*
X2419056Y709226D1*
X2418642Y710445D1*
X2418391Y711707D1*
X2418307Y712992D1*
D1*
X2418391Y714277D1*
X2418642Y715540D1*
X2419056Y716759D1*
X2419626Y717913D1*
X2420341Y718984D1*
X2421190Y719952D1*
X2422158Y720801D1*
X2423228Y721516D1*
X2424383Y722085D1*
X2425602Y722499D1*
X2426865Y722750D1*
X2428150Y722835D1*
X2429434Y722750D1*
X2430697Y722499D1*
X2431916Y722085D1*
X2433071Y721516D1*
X2434141Y720801D1*
X2435109Y719952D1*
X2435958Y718984D1*
X2436673Y717913D1*
X2437243Y716759D1*
X2437657Y715540D1*
X2437908Y714277D1*
X2437992Y712992D1*
D1*
G37*
X383877Y1905934D2*
G54D10*
G02X383877Y1744066I62992J-80934D01*
G01*
Y1905934D2*
Y1744066D1*
G36*
X366948Y1884843D2*
X368232Y1884758D1*
X369495Y1884507D1*
X370714Y1884093D1*
X371869Y1883524D1*
X372939Y1882809D1*
X373907Y1881960D1*
X374756Y1880992D1*
X375471Y1879921D1*
X376041Y1878767D1*
X376455Y1877547D1*
X376706Y1876285D1*
X376790Y1875000D1*
X376706Y1873715D1*
X376455Y1872453D1*
X376041Y1871233D1*
X375471Y1870079D1*
X374756Y1869008D1*
X373907Y1868040D1*
X372939Y1867191D1*
X371869Y1866476D1*
X370714Y1865907D1*
X369495Y1865493D1*
X368232Y1865242D1*
X366948Y1865157D1*
D1*
X365663Y1865242D1*
X364400Y1865493D1*
X363181Y1865907D1*
X362026Y1866476D1*
X360956Y1867191D1*
X359988Y1868040D1*
X359139Y1869008D1*
X358424Y1870079D1*
X357854Y1871233D1*
X357440Y1872453D1*
X357189Y1873715D1*
X357105Y1875000D1*
X357189Y1876285D1*
X357440Y1877547D1*
X357854Y1878767D1*
X358424Y1879921D1*
X359139Y1880992D1*
X359988Y1881960D1*
X360956Y1882809D1*
X362026Y1883524D1*
X363181Y1884093D1*
X364400Y1884507D1*
X365663Y1884758D1*
X366948Y1884843D1*
D1*
G37*
X933877Y1880934D2*
G54D10*
G02X933877Y1719066I62992J-80934D01*
G01*
Y1880934D2*
Y1719066D1*
G36*
X916948Y1859843D2*
X918232Y1859758D1*
X919495Y1859507D1*
X920714Y1859093D1*
X921869Y1858524D1*
X922939Y1857809D1*
X923907Y1856960D1*
X924756Y1855992D1*
X925471Y1854921D1*
X926041Y1853767D1*
X926455Y1852547D1*
X926706Y1851285D1*
X926790Y1850000D1*
X926706Y1848715D1*
X926455Y1847453D1*
X926041Y1846233D1*
X925471Y1845079D1*
X924756Y1844008D1*
X923907Y1843040D1*
X922939Y1842191D1*
X921869Y1841476D1*
X920714Y1840907D1*
X919495Y1840493D1*
X918232Y1840242D1*
X916948Y1840157D1*
D1*
X915663Y1840242D1*
X914400Y1840493D1*
X913181Y1840907D1*
X912026Y1841476D1*
X910956Y1842191D1*
X909988Y1843040D1*
X909139Y1844008D1*
X908424Y1845079D1*
X907854Y1846233D1*
X907440Y1847453D1*
X907189Y1848715D1*
X907105Y1850000D1*
X907189Y1851285D1*
X907440Y1852547D1*
X907854Y1853767D1*
X908424Y1854921D1*
X909139Y1855992D1*
X909988Y1856960D1*
X910956Y1857809D1*
X912026Y1858524D1*
X913181Y1859093D1*
X914400Y1859507D1*
X915663Y1859758D1*
X916948Y1859843D1*
D1*
G37*
X604430Y1192274D2*
G54D10*
G02X445570Y1192274I-79430J-64567D01*
G01*
X604430D2*
X445570D1*
G36*
X584843Y1209203D2*
X584758Y1207919D1*
X584507Y1206656D1*
X584093Y1205437D1*
X583524Y1204282D1*
X582809Y1203212D1*
X581960Y1202244D1*
X580992Y1201395D1*
X579921Y1200680D1*
X578767Y1200110D1*
X577547Y1199696D1*
X576285Y1199445D1*
X575000Y1199361D1*
X573715Y1199445D1*
X572453Y1199696D1*
X571233Y1200110D1*
X570079Y1200680D1*
X569008Y1201395D1*
X568040Y1202244D1*
X567191Y1203212D1*
X566476Y1204282D1*
X565907Y1205437D1*
X565493Y1206656D1*
X565242Y1207919D1*
X565157Y1209203D1*
D1*
X565242Y1210488D1*
X565493Y1211751D1*
X565907Y1212970D1*
X566476Y1214125D1*
X567191Y1215195D1*
X568040Y1216163D1*
X569008Y1217012D1*
X570079Y1217727D1*
X571233Y1218297D1*
X572453Y1218711D1*
X573715Y1218962D1*
X575000Y1219046D1*
X576285Y1218962D1*
X577547Y1218711D1*
X578767Y1218297D1*
X579921Y1217727D1*
X580992Y1217012D1*
X581960Y1216163D1*
X582809Y1215195D1*
X583524Y1214125D1*
X584093Y1212970D1*
X584507Y1211751D1*
X584758Y1210488D1*
X584843Y1209203D1*
D1*
G37*
X770570Y1057726D2*
G54D10*
G02X929430Y1057726I79430J64567D01*
G01*
X770570D2*
X929430D1*
G36*
X790157Y1040797D2*
X790242Y1042081D1*
X790493Y1043344D1*
X790907Y1044563D1*
X791476Y1045718D1*
X792191Y1046788D1*
X793040Y1047756D1*
X794008Y1048605D1*
X795079Y1049320D1*
X796233Y1049890D1*
X797453Y1050304D1*
X798715Y1050555D1*
X800000Y1050639D1*
X801285Y1050555D1*
X802547Y1050304D1*
X803767Y1049890D1*
X804921Y1049320D1*
X805992Y1048605D1*
X806960Y1047756D1*
X807809Y1046788D1*
X808524Y1045718D1*
X809093Y1044563D1*
X809507Y1043344D1*
X809758Y1042081D1*
X809843Y1040797D1*
D1*
X809758Y1039512D1*
X809507Y1038249D1*
X809093Y1037030D1*
X808524Y1035875D1*
X807809Y1034805D1*
X806960Y1033837D1*
X805992Y1032988D1*
X804921Y1032273D1*
X803767Y1031703D1*
X802547Y1031289D1*
X801285Y1031038D1*
X800000Y1030954D1*
X798715Y1031038D1*
X797453Y1031289D1*
X796233Y1031703D1*
X795079Y1032273D1*
X794008Y1032988D1*
X793040Y1033837D1*
X792191Y1034805D1*
X791476Y1035875D1*
X790907Y1037030D1*
X790493Y1038249D1*
X790242Y1039512D1*
X790157Y1040797D1*
D1*
G37*
X1908877Y1480934D2*
G54D10*
G02X1908877Y1319066I62992J-80934D01*
G01*
Y1480934D2*
Y1319066D1*
G36*
X1891948Y1459843D2*
X1893232Y1459758D1*
X1894495Y1459507D1*
X1895714Y1459093D1*
X1896869Y1458524D1*
X1897939Y1457809D1*
X1898907Y1456960D1*
X1899756Y1455992D1*
X1900471Y1454921D1*
X1901041Y1453767D1*
X1901455Y1452547D1*
X1901706Y1451285D1*
X1901790Y1450000D1*
X1901706Y1448715D1*
X1901455Y1447453D1*
X1901041Y1446233D1*
X1900471Y1445079D1*
X1899756Y1444008D1*
X1898907Y1443040D1*
X1897939Y1442191D1*
X1896869Y1441476D1*
X1895714Y1440907D1*
X1894495Y1440493D1*
X1893232Y1440242D1*
X1891948Y1440157D1*
D1*
X1890663Y1440242D1*
X1889400Y1440493D1*
X1888181Y1440907D1*
X1887026Y1441476D1*
X1885956Y1442191D1*
X1884988Y1443040D1*
X1884139Y1444008D1*
X1883424Y1445079D1*
X1882854Y1446233D1*
X1882440Y1447453D1*
X1882189Y1448715D1*
X1882105Y1450000D1*
X1882189Y1451285D1*
X1882440Y1452547D1*
X1882854Y1453767D1*
X1883424Y1454921D1*
X1884139Y1455992D1*
X1884988Y1456960D1*
X1885956Y1457809D1*
X1887026Y1458524D1*
X1888181Y1459093D1*
X1889400Y1459507D1*
X1890663Y1459758D1*
X1891948Y1459843D1*
D1*
G37*
X3267274Y1595570D2*
G54D10*
G02X3267274Y1754430I-64567J79430D01*
G01*
Y1595570D2*
Y1754430D1*
G36*
X3284203Y1615157D2*
X3282919Y1615242D1*
X3281656Y1615493D1*
X3280437Y1615907D1*
X3279282Y1616476D1*
X3278212Y1617191D1*
X3277244Y1618040D1*
X3276395Y1619008D1*
X3275680Y1620079D1*
X3275110Y1621233D1*
X3274696Y1622453D1*
X3274445Y1623715D1*
X3274361Y1625000D1*
X3274445Y1626285D1*
X3274696Y1627547D1*
X3275110Y1628767D1*
X3275680Y1629921D1*
X3276395Y1630992D1*
X3277244Y1631960D1*
X3278212Y1632809D1*
X3279282Y1633524D1*
X3280437Y1634093D1*
X3281656Y1634507D1*
X3282919Y1634758D1*
X3284203Y1634843D1*
D1*
X3285488Y1634758D1*
X3286751Y1634507D1*
X3287970Y1634093D1*
X3289125Y1633524D1*
X3290195Y1632809D1*
X3291163Y1631960D1*
X3292012Y1630992D1*
X3292727Y1629921D1*
X3293297Y1628767D1*
X3293711Y1627547D1*
X3293962Y1626285D1*
X3294046Y1625000D1*
X3293962Y1623715D1*
X3293711Y1622453D1*
X3293297Y1621233D1*
X3292727Y1620079D1*
X3292012Y1619008D1*
X3291163Y1618040D1*
X3290195Y1617191D1*
X3289125Y1616476D1*
X3287970Y1615907D1*
X3286751Y1615493D1*
X3285488Y1615242D1*
X3284203Y1615157D1*
D1*
G37*
X3044066Y808877D2*
G54D10*
G02X3205934Y808877I80934J62992D01*
G01*
X3044066D2*
X3205934D1*
G36*
X3065157Y791948D2*
X3065242Y793232D1*
X3065493Y794495D1*
X3065907Y795714D1*
X3066476Y796869D1*
X3067191Y797939D1*
X3068040Y798907D1*
X3069008Y799756D1*
X3070079Y800471D1*
X3071233Y801041D1*
X3072453Y801455D1*
X3073715Y801706D1*
X3075000Y801790D1*
X3076285Y801706D1*
X3077547Y801455D1*
X3078767Y801041D1*
X3079921Y800471D1*
X3080992Y799756D1*
X3081960Y798907D1*
X3082809Y797939D1*
X3083524Y796869D1*
X3084093Y795714D1*
X3084507Y794495D1*
X3084758Y793232D1*
X3084843Y791948D1*
D1*
X3084758Y790663D1*
X3084507Y789400D1*
X3084093Y788181D1*
X3083524Y787026D1*
X3082809Y785956D1*
X3081960Y784988D1*
X3080992Y784139D1*
X3079921Y783424D1*
X3078767Y782854D1*
X3077547Y782440D1*
X3076285Y782189D1*
X3075000Y782105D1*
X3073715Y782189D1*
X3072453Y782440D1*
X3071233Y782854D1*
X3070079Y783424D1*
X3069008Y784139D1*
X3068040Y784988D1*
X3067191Y785956D1*
X3066476Y787026D1*
X3065907Y788181D1*
X3065493Y789400D1*
X3065242Y790663D1*
X3065157Y791948D1*
D1*
G37*
X844850Y530000D2*
G54D10*
Y470000D1*
X1005150Y530000D2*
X844850D1*
X1005150D2*
Y470000D1*
X844850D1*
X2005000Y1905150D2*
X1945000D1*
X2005000Y1744850D2*
Y1905150D1*
Y1744850D2*
X1945000D1*
Y1905150D1*
X1555000Y755150D2*
X1495000D1*
X1555000Y594850D2*
Y755150D1*
Y594850D2*
X1495000D1*
Y755150D1*
X2680000Y1905150D2*
X2620000D1*
X2680000Y1744850D2*
Y1905150D1*
Y1744850D2*
X2620000D1*
Y1905150D1*
X2969850Y555000D2*
Y495000D1*
X3130150Y555000D2*
X2969850D1*
X3130150D2*
Y495000D1*
X2969850D1*
X506169Y285146D2*
G54D69*
Y244954D1*
X479374Y285146D1*
Y244954D1*
X546615Y271749D2*
Y244954D1*
Y266001D2*
X542812Y269848D1*
X538966Y271749D1*
X533262D1*
X529415Y269848D1*
X525612Y266001D1*
X523667Y260253D1*
Y256451D1*
X525612Y250702D1*
X529415Y246900D1*
X533262Y244954D1*
X538966D1*
X542812Y246900D1*
X546615Y250702D1*
X564113Y271749D2*
Y244954D1*
Y264100D2*
X569861Y269848D1*
X573707Y271749D1*
X579411D1*
X583258Y269848D1*
X585159Y264100D1*
Y244954D1*
Y264100D2*
X590907Y269848D1*
X594754Y271749D1*
X600458D1*
X604305Y269848D1*
X606250Y264100D1*
Y244954D1*
X623748Y260253D2*
X646696D1*
Y264100D1*
X644795Y267947D1*
X642893Y269848D1*
X639047Y271749D1*
X633299D1*
X629496Y269848D1*
X625649Y266001D1*
X623748Y260253D1*
Y256451D1*
X625649Y250702D1*
X629496Y246900D1*
X633299Y244954D1*
X639047D1*
X642893Y246900D1*
X646696Y250702D1*
X666139Y271749D2*
X664194Y269804D1*
X666139Y267902D1*
X668040Y269804D1*
X666139Y271749D1*
Y248801D2*
X664194Y246856D1*
X666139Y244954D1*
X668040Y246856D1*
X666139Y248801D1*
X758261Y275596D2*
X756360Y279398D1*
X752513Y283245D1*
X748711Y285146D1*
X741062D1*
X737215Y283245D1*
X733412Y279398D1*
X731467Y275596D1*
X729565Y269848D1*
Y260253D1*
X731467Y254549D1*
X733412Y250702D1*
X737215Y246900D1*
X741062Y244954D1*
X748711D1*
X752513Y246900D1*
X756360Y250702D1*
X758261Y254549D1*
Y260253D1*
X748711D1*
X787255Y285146D2*
X783409Y283245D1*
X779606Y279398D1*
X777660Y275596D1*
X775759Y269848D1*
Y260253D1*
X777660Y254549D1*
X779606Y250702D1*
X783409Y246900D1*
X787255Y244954D1*
X794905D1*
X798707Y246900D1*
X802554Y250702D1*
X804455Y254549D1*
X806356Y260253D1*
Y269848D1*
X804455Y275596D1*
X802554Y279398D1*
X798707Y283245D1*
X794905Y285146D1*
X787255D1*
X823854D2*
Y244954D1*
X850649Y285146D2*
X823854Y258352D1*
X833405Y267947D2*
X850649Y244954D1*
X868147Y285146D2*
Y244954D1*
X881544D1*
X887292Y246900D1*
X891139Y250702D1*
X893040Y254549D1*
X894941Y260253D1*
Y269848D1*
X893040Y275596D1*
X891139Y279398D1*
X887292Y283245D1*
X881544Y285146D1*
X868147D1*
X923935D2*
X920088Y283245D1*
X916286Y279398D1*
X914340Y275596D1*
X912439Y269848D1*
Y260253D1*
X914340Y254549D1*
X916286Y250702D1*
X920088Y246900D1*
X923935Y244954D1*
X931585D1*
X935387Y246900D1*
X939234Y250702D1*
X941135Y254549D1*
X943036Y260253D1*
Y269848D1*
X941135Y275596D1*
X939234Y279398D1*
X935387Y283245D1*
X931585Y285146D1*
X923935D1*
X989230Y275596D2*
X987329Y279398D1*
X983482Y283245D1*
X979680Y285146D1*
X972030D1*
X968184Y283245D1*
X964381Y279398D1*
X962435Y275596D1*
X960534Y269848D1*
Y260253D1*
X962435Y254549D1*
X964381Y250702D1*
X968184Y246900D1*
X972030Y244954D1*
X979680D1*
X983482Y246900D1*
X987329Y250702D1*
X989230Y254549D1*
Y260253D1*
X979680D1*
X1037369Y244954D2*
X1022027Y285146D1*
X1006728Y244954D1*
X1012476Y258352D2*
X1031621D1*
X1081662Y285146D2*
Y244954D1*
X1054867Y285146D1*
Y244954D1*
X490871Y206661D2*
X487024Y204759D1*
X483221Y200913D1*
X481276Y197110D1*
X479374Y191362D1*
Y181767D1*
X481276Y176064D1*
X483221Y172217D1*
X487024Y168414D1*
X490871Y166469D1*
X498520D1*
X502322Y168414D1*
X506169Y172217D1*
X508070Y176064D1*
X509972Y181767D1*
Y191362D1*
X508070Y197110D1*
X506169Y200913D1*
X502322Y204759D1*
X498520Y206661D1*
X490871D1*
X527469Y193263D2*
Y166469D1*
Y185614D2*
X533218Y191362D1*
X537064Y193263D1*
X542768D1*
X546615Y191362D1*
X548516Y185614D1*
Y166469D1*
Y185614D2*
X554264Y191362D1*
X558111Y193263D1*
X563815D1*
X567661Y191362D1*
X569607Y185614D1*
Y166469D1*
X587105Y181767D2*
X610053D1*
Y185614D1*
X608151Y189461D1*
X606250Y191362D1*
X602403Y193263D1*
X596655D1*
X592853Y191362D1*
X589006Y187515D1*
X587105Y181767D1*
Y177965D1*
X589006Y172217D1*
X592853Y168414D1*
X596655Y166469D1*
X602403D1*
X606250Y168414D1*
X610053Y172217D1*
X627551Y193263D2*
Y166469D1*
Y181767D2*
X629496Y187515D1*
X633299Y191362D1*
X637145Y193263D1*
X642893D1*
X717816Y206661D2*
Y166469D1*
X704418Y206661D2*
X731213D1*
X748711D2*
Y177965D1*
X750612Y172217D1*
X754459Y168414D1*
X760207Y166469D1*
X764009D1*
X769757Y168414D1*
X773604Y172217D1*
X775505Y177965D1*
Y206661D1*
X821699Y197110D2*
X819798Y200913D1*
X815951Y204759D1*
X812149Y206661D1*
X804499D1*
X800653Y204759D1*
X796850Y200913D1*
X794905Y197110D1*
X793003Y191362D1*
Y181767D1*
X794905Y176064D1*
X796850Y172217D1*
X800653Y168414D1*
X804499Y166469D1*
X812149D1*
X815951Y168414D1*
X819798Y172217D1*
X821699Y176064D1*
Y181767D1*
X812149D1*
X839197Y187515D2*
X856397D1*
X862145Y189461D1*
X864090Y191362D1*
X865992Y195165D1*
Y199011D1*
X864090Y202814D1*
X862145Y204759D1*
X856397Y206661D1*
X839197D1*
Y166469D1*
X852594Y187515D2*
X865992Y166469D1*
X883490Y206661D2*
Y177965D1*
X885391Y172217D1*
X889238Y168414D1*
X894986Y166469D1*
X898788D1*
X904536Y168414D1*
X908383Y172217D1*
X910284Y177965D1*
Y206661D1*
X927782D2*
Y166469D1*
X950730D1*
X506169Y122427D2*
X502367Y126274D1*
X496619Y128175D1*
X488969D1*
X483221Y126274D1*
X479374Y122427D1*
Y118624D1*
X481320Y114778D1*
X483221Y112876D1*
X487024Y110975D1*
X498520Y107128D1*
X502367Y105227D1*
X504268Y103282D1*
X506169Y99479D1*
Y93731D1*
X502367Y89929D1*
X496619Y87983D1*
X488969D1*
X483221Y89929D1*
X479374Y93731D1*
X523667Y103282D2*
X546615D1*
Y107128D1*
X544714Y110975D1*
X542812Y112876D1*
X538966Y114778D1*
X533218D1*
X529415Y112876D1*
X525568Y109030D1*
X523667Y103282D1*
Y99479D1*
X525568Y93731D1*
X529415Y89929D1*
X533218Y87983D1*
X538966D1*
X542812Y89929D1*
X546615Y93731D1*
X564113Y128175D2*
Y87983D1*
X581610Y128175D2*
X583512Y126274D1*
X585457Y128175D1*
X583512Y130121D1*
X581610Y128175D1*
X583512Y114778D2*
Y87983D1*
X602955Y114778D2*
Y87983D1*
Y107128D2*
X608703Y112876D1*
X612550Y114778D1*
X618254D1*
X622100Y112876D1*
X624002Y107128D1*
Y87983D1*
X716168D2*
X700825Y128175D1*
X685527Y87983D1*
X691275Y101380D2*
X710420D1*
X747063Y128175D2*
Y87983D1*
X733666Y128175D2*
X760461D1*
X808600Y87983D2*
X793257Y128175D1*
X777958Y87983D1*
X783706Y101380D2*
X802852D1*
X852892Y122427D2*
X849090Y126274D1*
X843342Y128175D1*
X835692D1*
X829944Y126274D1*
X826098Y122427D1*
Y118624D1*
X828043Y114778D1*
X829944Y112876D1*
X833747Y110975D1*
X845243Y107128D1*
X849090Y105227D1*
X850991Y103282D1*
X852892Y99479D1*
Y93731D1*
X849090Y89929D1*
X843342Y87983D1*
X835692D1*
X829944Y89929D1*
X826098Y93731D1*
X1646285Y1145781D2*
G54D68*
X1651038Y1148158D1*
X1655846Y1152966D1*
X1658223Y1157720D1*
Y1167281D1*
X1655846Y1172090D1*
X1651038Y1176843D1*
X1646285Y1179275D1*
X1639100Y1181651D1*
X1627106D1*
X1619977Y1179275D1*
X1615168Y1176843D1*
X1610415Y1172090D1*
X1607983Y1167281D1*
Y1157720D1*
X1610415Y1152966D1*
X1615168Y1148158D1*
X1619977Y1145781D1*
X1648606Y1130342D2*
X1651038Y1125534D1*
X1658168Y1118349D1*
X1607983D1*
X2519537Y1495467D2*
Y1445227D1*
X2536284D1*
X2543469Y1447659D1*
X2548277Y1452412D1*
X2550654Y1457221D1*
X2553030Y1464350D1*
Y1476344D1*
X2550654Y1483529D1*
X2548277Y1488282D1*
X2543469Y1493091D1*
X2536284Y1495467D1*
X2519537D1*
X2568470Y1485850D2*
X2573278Y1488282D1*
X2580463Y1495412D1*
Y1445227D1*
X2316607Y629927D2*
Y680167D1*
X2299860D1*
X2292675Y677735D1*
X2287867Y672981D1*
X2285490Y668173D1*
X2283113Y661043D1*
Y649050D1*
X2285490Y641865D1*
X2287867Y637112D1*
X2292675Y632303D1*
X2299860Y629927D1*
X2316607D1*
X2265242Y641920D2*
Y639543D1*
X2262866Y634735D1*
X2260489Y632358D1*
X2255681Y629982D1*
X2246119D1*
X2241366Y632358D1*
X2238989Y634735D1*
X2236557Y639543D1*
Y644297D1*
X2238989Y649105D1*
X2243742Y656235D1*
X2267674Y680167D1*
X2234181D1*
X1079660Y727751D2*
Y677511D1*
X1095099Y711004D2*
Y677511D1*
Y701442D2*
X1102284Y708627D1*
X1107093Y711004D1*
X1114222D1*
X1119031Y708627D1*
X1121407Y701442D1*
Y677511D1*
X1139279Y715757D2*
Y718134D1*
X1141655Y722942D1*
X1144032Y725319D1*
X1148840Y727695D1*
X1158402D1*
X1163155Y725319D1*
X1165532Y722942D1*
X1167963Y718134D1*
Y713381D1*
X1165532Y708572D1*
X1160778Y701442D1*
X1136847Y677511D1*
X1170340D1*
X632690Y1843497D2*
X630369Y1848250D1*
X625560Y1853059D1*
X620752Y1855435D1*
X613567Y1857867D1*
X601629D1*
X594444Y1855435D1*
X589691Y1853059D1*
X584882Y1848250D1*
X582506Y1843497D1*
Y1833936D1*
X584882Y1829127D1*
X589691Y1824374D1*
X594444Y1821997D1*
X601629Y1819565D1*
X613567D1*
X620752Y1821997D1*
X625560Y1824374D1*
X630369Y1829127D1*
X632690Y1833936D1*
Y1843497D1*
X592067Y1836312D2*
X577697Y1821997D1*
X623073Y1804126D2*
X625505Y1799318D1*
X632635Y1792133D1*
X582450D1*
X1182690Y1829247D2*
X1180369Y1834000D1*
X1175560Y1838809D1*
X1170752Y1841185D1*
X1163567Y1843617D1*
X1151629D1*
X1144444Y1841185D1*
X1139691Y1838809D1*
X1134882Y1834000D1*
X1132506Y1829247D1*
Y1819685D1*
X1134882Y1814877D1*
X1139691Y1810124D1*
X1144444Y1807747D1*
X1151629Y1805315D1*
X1163567D1*
X1170752Y1807747D1*
X1175560Y1810124D1*
X1180369Y1814877D1*
X1182690Y1819685D1*
Y1829247D1*
X1142067Y1822062D2*
X1127697Y1807747D1*
X1170697Y1787444D2*
X1173073D1*
X1177882Y1785068D1*
X1180258Y1782691D1*
X1182635Y1777883D1*
Y1768321D1*
X1180258Y1763568D1*
X1177882Y1761191D1*
X1173073Y1758759D1*
X1168320D1*
X1163512Y1761191D1*
X1156382Y1765944D1*
X1132450Y1789876D1*
Y1756383D1*
X554247Y942280D2*
X559000Y944601D1*
X563809Y949409D1*
X566185Y954218D1*
X568617Y961403D1*
Y973341D1*
X566185Y980526D1*
X563809Y985279D1*
X559000Y990088D1*
X554247Y992464D1*
X544685D1*
X539877Y990088D1*
X535124Y985279D1*
X532747Y980526D1*
X530315Y973341D1*
Y961403D1*
X532747Y954218D1*
X535124Y949409D1*
X539877Y944601D1*
X544685Y942280D1*
X554247D1*
X547062Y982903D2*
X532747Y997273D1*
X510068Y942335D2*
X483815D1*
X498129Y961458D1*
X490944D1*
X486191Y963835D1*
X483815Y966211D1*
X481383Y973396D1*
Y978149D1*
X483815Y985335D1*
X488568Y990143D1*
X495753Y992520D1*
X502938D1*
X510068Y990143D1*
X512444Y987711D1*
X514876Y982958D1*
X819565Y1307720D2*
X814811Y1305399D1*
X810003Y1300591D1*
X807626Y1295782D1*
X805195Y1288597D1*
Y1276659D1*
X807626Y1269474D1*
X810003Y1264721D1*
X814811Y1259912D1*
X819565Y1257536D1*
X829126D1*
X833935Y1259912D1*
X838688Y1264721D1*
X841064Y1269474D1*
X843496Y1276659D1*
Y1288597D1*
X841064Y1295782D1*
X838688Y1300591D1*
X833935Y1305399D1*
X829126Y1307720D1*
X819565D1*
X826750Y1267097D2*
X841064Y1252727D1*
X882867Y1257480D2*
Y1307665D1*
X858936Y1274227D1*
X894805D1*
X2157690Y1429247D2*
X2155369Y1434000D1*
X2150560Y1438809D1*
X2145752Y1441185D1*
X2138567Y1443617D1*
X2126629D1*
X2119444Y1441185D1*
X2114691Y1438809D1*
X2109882Y1434000D1*
X2107506Y1429247D1*
Y1419685D1*
X2109882Y1414877D1*
X2114691Y1410124D1*
X2119444Y1407747D1*
X2126629Y1405315D1*
X2138567D1*
X2145752Y1407747D1*
X2150560Y1410124D1*
X2155369Y1414877D1*
X2157690Y1419685D1*
Y1429247D1*
X2117067Y1422062D2*
X2102697Y1407747D1*
X2157635Y1361191D2*
Y1385068D1*
X2136135Y1387444D1*
X2138512Y1385068D1*
X2140944Y1377883D1*
Y1370753D1*
X2138512Y1363568D1*
X2133759Y1358759D1*
X2126574Y1356383D1*
X2121820D1*
X2114635Y1358759D1*
X2109827Y1363568D1*
X2107450Y1370753D1*
Y1377883D1*
X2109827Y1385068D1*
X2112259Y1387444D1*
X2117012Y1389876D1*
X3017280Y1646969D2*
X3019601Y1642216D1*
X3024409Y1637407D1*
X3029218Y1635031D1*
X3036403Y1632599D1*
X3048341D1*
X3055526Y1635031D1*
X3060279Y1637407D1*
X3065088Y1642216D1*
X3067464Y1646969D1*
Y1656530D1*
X3065088Y1661339D1*
X3060279Y1666092D1*
X3055526Y1668469D1*
X3048341Y1670901D1*
X3036403D1*
X3029218Y1668469D1*
X3024409Y1666092D1*
X3019601Y1661339D1*
X3017280Y1656530D1*
Y1646969D1*
X3057903Y1654154D2*
X3072273Y1668469D1*
X3024465Y1715025D2*
X3019711Y1712648D1*
X3017335Y1705463D1*
Y1700710D1*
X3019711Y1693525D1*
X3026896Y1688716D1*
X3038835Y1686340D1*
X3050773D1*
X3060335Y1688716D1*
X3065143Y1693525D1*
X3067520Y1700710D1*
Y1703086D1*
X3065143Y1710216D1*
X3060335Y1715025D1*
X3053149Y1717401D1*
X3050773D1*
X3043588Y1715025D1*
X3038835Y1710216D1*
X3036458Y1703086D1*
Y1700710D1*
X3038835Y1693525D1*
X3043588Y1688716D1*
X3050773Y1686340D1*
X3095753Y1057690D2*
X3091000Y1055369D1*
X3086191Y1050560D1*
X3083815Y1045752D1*
X3081383Y1038567D1*
Y1026629D1*
X3083815Y1019444D1*
X3086191Y1014691D1*
X3091000Y1009882D1*
X3095753Y1007506D1*
X3105315D1*
X3110123Y1009882D1*
X3114876Y1014691D1*
X3117253Y1019444D1*
X3119685Y1026629D1*
Y1038567D1*
X3117253Y1045752D1*
X3114876Y1050560D1*
X3110123Y1055369D1*
X3105315Y1057690D1*
X3095753D1*
X3102938Y1017067D2*
X3117253Y1002697D1*
X3144685Y1007450D2*
X3168617Y1057635D1*
X3135124D1*
X955463Y420709D2*
X933963D1*
X926778Y418277D1*
X924346Y415900D1*
X921970Y411147D1*
Y406339D1*
X924346Y401585D1*
X926778Y399154D1*
X933963Y396777D1*
X955463D1*
Y447017D1*
X938716Y420709D2*
X921970Y447017D1*
X906530Y406394D2*
X901722Y403962D1*
X894537Y396832D1*
Y447017D1*
X1895709Y1783787D2*
Y1805287D1*
X1893277Y1812472D1*
X1890900Y1814904D1*
X1886147Y1817280D1*
X1881339D1*
X1876585Y1814904D1*
X1874154Y1812472D1*
X1871777Y1805287D1*
Y1783787D1*
X1922017D1*
X1895709Y1800534D2*
X1922017Y1817280D1*
X1883770Y1835151D2*
X1881394D1*
X1876585Y1837528D1*
X1874209Y1839905D1*
X1871832Y1844713D1*
Y1854275D1*
X1874209Y1859028D1*
X1876585Y1861405D1*
X1881394Y1863836D1*
X1886147D1*
X1890955Y1861405D1*
X1898085Y1856651D1*
X1922017Y1832720D1*
Y1866213D1*
X1445709Y633787D2*
Y655287D1*
X1443277Y662472D1*
X1440900Y664904D1*
X1436147Y667280D1*
X1431339D1*
X1426585Y664904D1*
X1424154Y662472D1*
X1421777Y655287D1*
Y633787D1*
X1472017D1*
X1445709Y650534D2*
X1472017Y667280D1*
X1421832Y687528D2*
Y713781D1*
X1440955Y699466D1*
Y706651D1*
X1443332Y711405D1*
X1445709Y713781D1*
X1452894Y716213D1*
X1457647D1*
X1464832Y713781D1*
X1469640Y709028D1*
X1472017Y701843D1*
Y694658D1*
X1469640Y687528D1*
X1467208Y685151D1*
X1462455Y682720D1*
X2570709Y1783787D2*
Y1805287D1*
X2568277Y1812472D1*
X2565900Y1814904D1*
X2561147Y1817280D1*
X2556339D1*
X2551585Y1814904D1*
X2549154Y1812472D1*
X2546777Y1805287D1*
Y1783787D1*
X2597017D1*
X2570709Y1800534D2*
X2597017Y1817280D1*
X2546832Y1861405D2*
Y1837528D1*
X2568332Y1835151D1*
X2565955Y1837528D1*
X2563524Y1844713D1*
Y1851843D1*
X2565955Y1859028D1*
X2570709Y1863836D1*
X2577894Y1866213D1*
X2582647D1*
X2589832Y1863836D1*
X2594640Y1859028D1*
X2597017Y1851843D1*
Y1844713D1*
X2594640Y1837528D1*
X2592208Y1835151D1*
X2587455Y1832720D1*
X3089997Y445709D2*
X3068497D1*
X3061312Y443277D1*
X3058880Y440900D1*
X3056504Y436147D1*
Y431339D1*
X3058880Y426585D1*
X3061312Y424154D1*
X3068497Y421777D1*
X3089997D1*
Y472017D1*
X3073250Y445709D2*
X3056504Y472017D1*
X3012380Y428962D2*
X3014756Y424209D1*
X3021941Y421832D1*
X3026694D1*
X3033879Y424209D1*
X3038688Y431394D1*
X3041064Y443332D1*
Y455270D1*
X3038688Y464832D1*
X3033879Y469640D1*
X3026694Y472017D1*
X3024318D1*
X3017188Y469640D1*
X3012380Y464832D1*
X3010003Y457647D1*
Y455270D1*
X3012380Y448085D1*
X3017188Y443332D1*
X3024318Y440955D1*
X3026694D1*
X3033879Y443332D1*
X3038688Y448085D1*
X3041064Y455270D1*
X2021157Y376816D2*
X2048792D1*
X2064231Y392346D2*
X2069040Y394778D1*
X2076225Y401908D1*
Y351723D1*
X2106034Y401908D2*
X2098849Y399531D1*
X2094040Y392346D1*
X2091664Y380408D1*
Y373223D1*
X2094040Y361285D1*
X2098849Y354100D1*
X2106034Y351723D1*
X2110787D1*
X2117972Y354100D1*
X2122725Y361285D1*
X2125157Y373223D1*
Y380408D1*
X2122725Y392346D1*
X2117972Y399531D1*
X2110787Y401908D1*
X2106034D1*
X2122725Y392346D2*
X2094040Y361285D1*
X2140596Y401963D2*
X2159720Y351723D1*
X2178843Y401963D1*
X415410Y454301D2*
Y404060D1*
X430849Y437554D2*
Y404060D1*
Y427992D2*
X438034Y435177D1*
X442843Y437554D1*
X449972D1*
X454781Y435177D1*
X457157Y427992D1*
Y404060D1*
X472597Y444684D2*
X477405Y447115D1*
X484590Y454245D1*
Y404060D1*
X3146314Y1401963D2*
X3141506Y1399587D1*
X3136753Y1394778D1*
X3134321Y1390025D1*
X3131944Y1382840D1*
Y1370846D1*
X3134321Y1363717D1*
X3136753Y1358908D1*
X3141506Y1354155D1*
X3146314Y1351723D1*
X3155876D1*
X3160629Y1354155D1*
X3165437Y1358908D1*
X3167814Y1363717D1*
X3170191Y1370846D1*
Y1382840D1*
X3167814Y1390025D1*
X3165437Y1394778D1*
X3160629Y1399587D1*
X3155876Y1401963D1*
X3146314D1*
X3185630D2*
Y1366093D1*
X3188007Y1358908D1*
X3192815Y1354155D1*
X3200000Y1351723D1*
X3204753D1*
X3211938Y1354155D1*
X3216747Y1358908D1*
X3219123Y1366093D1*
Y1401963D1*
X3251309D2*
Y1351723D1*
X3234563Y1401963D2*
X3268056D1*
X1709947Y2249512D2*
Y2206457D1*
X1688447Y2227957D2*
X1731502D1*
X1746941Y2243516D2*
X1751750Y2245947D1*
X1758935Y2253077D1*
Y2202893D1*
X1788744Y2253077D2*
X1781559Y2250701D1*
X1776751Y2243516D1*
X1774374Y2231577D1*
Y2224392D1*
X1776751Y2212454D1*
X1781559Y2205269D1*
X1788744Y2202893D1*
X1793497D1*
X1800682Y2205269D1*
X1805435Y2212454D1*
X1807867Y2224392D1*
Y2231577D1*
X1805435Y2243516D1*
X1800682Y2250701D1*
X1793497Y2253077D1*
X1788744D1*
X1805435Y2243516D2*
X1776751Y2212454D1*
X1823307Y2253133D2*
X1842430Y2202893D1*
X1861553Y2253133D1*
M02*
